<mxfile host="app.diagrams.net" modified="2022-08-21T02:13:13.097Z" agent="5.0 (Macintosh; Intel Mac OS X 10_15_7) AppleWebKit/605.1.15 (KHTML, like Gecko) Version/15.6 Safari/605.1.15" etag="zWiYashVJEkiJXy_UfIl" version="20.2.5" type="github">
  <diagram id="PSdPENs6ECiFrNap9YnZ" name="Page-1">
    <mxGraphModel dx="1105" dy="597" grid="1" gridSize="10" guides="1" tooltips="1" connect="1" arrows="1" fold="1" page="1" pageScale="1" pageWidth="827" pageHeight="1169" math="0" shadow="0">
      <root>
        <mxCell id="0" />
        <mxCell id="1" parent="0" />
        <mxCell id="xB1bQT7vTEx0vRgnG56x-1" value="Inicio" style="strokeWidth=2;html=1;shape=mxgraph.flowchart.terminator;whiteSpace=wrap;" vertex="1" parent="1">
          <mxGeometry x="210" y="100" width="100" height="40" as="geometry" />
        </mxCell>
        <mxCell id="xB1bQT7vTEx0vRgnG56x-2" value="lado1, lado2, lado3" style="shape=parallelogram;html=1;strokeWidth=2;perimeter=parallelogramPerimeter;whiteSpace=wrap;rounded=1;arcSize=12;size=0.23;" vertex="1" parent="1">
          <mxGeometry x="180" y="165" width="160" height="35" as="geometry" />
        </mxCell>
        <mxCell id="xB1bQT7vTEx0vRgnG56x-3" value="area" style="strokeWidth=2;html=1;shape=mxgraph.flowchart.document2;whiteSpace=wrap;size=0.25;" vertex="1" parent="1">
          <mxGeometry x="210" y="310" width="100" height="50" as="geometry" />
        </mxCell>
        <mxCell id="xB1bQT7vTEx0vRgnG56x-4" value="Fin" style="strokeWidth=2;html=1;shape=mxgraph.flowchart.terminator;whiteSpace=wrap;" vertex="1" parent="1">
          <mxGeometry x="210" y="390" width="100" height="40" as="geometry" />
        </mxCell>
        <mxCell id="xB1bQT7vTEx0vRgnG56x-5" value="" style="endArrow=classic;html=1;rounded=0;exitX=0.5;exitY=1;exitDx=0;exitDy=0;exitPerimeter=0;entryX=0.5;entryY=0;entryDx=0;entryDy=0;" edge="1" parent="1" source="xB1bQT7vTEx0vRgnG56x-1" target="xB1bQT7vTEx0vRgnG56x-2">
          <mxGeometry width="50" height="50" relative="1" as="geometry">
            <mxPoint x="236" y="370" as="sourcePoint" />
            <mxPoint x="286" y="320" as="targetPoint" />
          </mxGeometry>
        </mxCell>
        <mxCell id="xB1bQT7vTEx0vRgnG56x-6" value="" style="endArrow=classic;html=1;rounded=0;exitX=0.5;exitY=1;exitDx=0;exitDy=0;entryX=0.5;entryY=0;entryDx=0;entryDy=0;" edge="1" parent="1" source="xB1bQT7vTEx0vRgnG56x-2" target="xB1bQT7vTEx0vRgnG56x-11">
          <mxGeometry width="50" height="50" relative="1" as="geometry">
            <mxPoint x="406" y="230" as="sourcePoint" />
            <mxPoint x="260" y="250" as="targetPoint" />
          </mxGeometry>
        </mxCell>
        <mxCell id="xB1bQT7vTEx0vRgnG56x-7" value="" style="endArrow=classic;html=1;rounded=0;entryX=0.5;entryY=0;entryDx=0;entryDy=0;entryPerimeter=0;" edge="1" parent="1" source="xB1bQT7vTEx0vRgnG56x-3" target="xB1bQT7vTEx0vRgnG56x-4">
          <mxGeometry width="50" height="50" relative="1" as="geometry">
            <mxPoint x="236" y="610" as="sourcePoint" />
            <mxPoint x="266" y="430" as="targetPoint" />
          </mxGeometry>
        </mxCell>
        <mxCell id="xB1bQT7vTEx0vRgnG56x-8" value="&lt;meta charset=&quot;utf-8&quot;&gt;&lt;div style=&quot;font-style: normal; font-variant-caps: normal; font-weight: normal; letter-spacing: normal; text-align: start; text-indent: 0px; text-transform: none; word-spacing: 0px; -webkit-text-stroke-width: 0px; text-decoration: none; color: rgb(171, 178, 191); background-color: rgb(40, 44, 52); font-family: &amp;quot;Fira Code&amp;quot;, &amp;quot;Menlo for Powerline&amp;quot;, Menlo, Monaco, &amp;quot;Courier New&amp;quot;, monospace; font-size: 12px; line-height: 18px;&quot;&gt;&lt;div&gt;&lt;span style=&quot;color: rgb(127, 132, 142); font-style: italic;&quot;&gt;DeclaraciÃ³n de variables e ingrese de datos&lt;/span&gt;&lt;/div&gt;&lt;/div&gt;" style="text;whiteSpace=wrap;html=1;" vertex="1" parent="1">
          <mxGeometry x="370" y="162.5" width="340" height="40" as="geometry" />
        </mxCell>
        <mxCell id="xB1bQT7vTEx0vRgnG56x-9" value="&lt;div style=&quot;font-style: normal; font-variant-caps: normal; font-weight: normal; letter-spacing: normal; text-align: start; text-indent: 0px; text-transform: none; word-spacing: 0px; -webkit-text-stroke-width: 0px; text-decoration: none; color: rgb(171, 178, 191); background-color: rgb(40, 44, 52); font-family: &amp;quot;Fira Code&amp;quot;, &amp;quot;Menlo for Powerline&amp;quot;, Menlo, Monaco, &amp;quot;Courier New&amp;quot;, monospace; font-size: 12px; line-height: 18px;&quot;&gt;&lt;div&gt;&lt;span style=&quot;color: rgb(127, 132, 142); font-style: italic;&quot;&gt;Mostrar resultados al usuario&lt;/span&gt;&lt;/div&gt;&lt;/div&gt;" style="text;whiteSpace=wrap;html=1;" vertex="1" parent="1">
          <mxGeometry x="370" y="315" width="240" height="40" as="geometry" />
        </mxCell>
        <mxCell id="xB1bQT7vTEx0vRgnG56x-10" style="edgeStyle=orthogonalEdgeStyle;rounded=0;orthogonalLoop=1;jettySize=auto;html=1;exitX=0.5;exitY=1;exitDx=0;exitDy=0;entryX=0.5;entryY=0;entryDx=0;entryDy=0;entryPerimeter=0;" edge="1" parent="1" source="xB1bQT7vTEx0vRgnG56x-11" target="xB1bQT7vTEx0vRgnG56x-3">
          <mxGeometry relative="1" as="geometry" />
        </mxCell>
        <mxCell id="xB1bQT7vTEx0vRgnG56x-11" value="sp = (lado1+lado2+lado3)/2&lt;br&gt;area = raiz_cuadrada(sp*(sp-lado1)*(sp-lado2)*(sp-lado3))" style="rounded=1;whiteSpace=wrap;html=1;absoluteArcSize=1;arcSize=14;strokeWidth=2;" vertex="1" parent="1">
          <mxGeometry x="95" y="230" width="330" height="50" as="geometry" />
        </mxCell>
        <mxCell id="xB1bQT7vTEx0vRgnG56x-12" value="&lt;div style=&quot;font-style: normal; font-variant-caps: normal; font-weight: normal; letter-spacing: normal; text-align: start; text-indent: 0px; text-transform: none; word-spacing: 0px; -webkit-text-stroke-width: 0px; text-decoration: none; color: rgb(171, 178, 191); background-color: rgb(40, 44, 52); font-family: &amp;quot;Fira Code&amp;quot;, &amp;quot;Menlo for Powerline&amp;quot;, Menlo, Monaco, &amp;quot;Courier New&amp;quot;, monospace; font-size: 12px; line-height: 18px;&quot;&gt;&lt;div&gt;&lt;span style=&quot;color: rgb(127, 132, 142); font-style: italic;&quot;&gt;Desarrollo de operaciones&lt;/span&gt;&lt;/div&gt;&lt;/div&gt;" style="text;whiteSpace=wrap;html=1;" vertex="1" parent="1">
          <mxGeometry x="460" y="235" width="210" height="40" as="geometry" />
        </mxCell>
      </root>
    </mxGraphModel>
  </diagram>
</mxfile>
